<?xml version="1.0" encoding="UTF-8" standalone="no"?>
<!-- Generator: Adobe Illustrator 16.0.0, SVG Export Plug-In . SVG Version: 6.00 Build 0)  -->

<svg
   xmlns:dc="http://purl.org/dc/elements/1.1/"
   xmlns:cc="http://creativecommons.org/ns#"
   xmlns:rdf="http://www.w3.org/1999/02/22-rdf-syntax-ns#"
   xmlns:svg="http://www.w3.org/2000/svg"
   xmlns="http://www.w3.org/2000/svg"
   xmlns:sodipodi="http://sodipodi.sourceforge.net/DTD/sodipodi-0.dtd"
   xmlns:inkscape="http://www.inkscape.org/namespaces/inkscape"
   version="1.1"
   id="Capa_1"
   x="0px"
   y="0px"
   width="15"
   height="30"
   viewBox="0 0 15 30.000001"
   xml:space="preserve"
   sodipodi:docname="faceb.svg"
   inkscape:version="0.92.4 (5da689c313, 2019-01-14)"><metadata
   id="metadata41"><rdf:RDF><cc:Work
       rdf:about=""><dc:format>image/svg+xml</dc:format><dc:type
         rdf:resource="http://purl.org/dc/dcmitype/StillImage" /><dc:title></dc:title></cc:Work></rdf:RDF></metadata><defs
   id="defs39" /><sodipodi:namedview
   pagecolor="#ffffff"
   bordercolor="#666666"
   borderopacity="1"
   objecttolerance="10"
   gridtolerance="10"
   guidetolerance="10"
   inkscape:pageopacity="0"
   inkscape:pageshadow="2"
   inkscape:window-width="716"
   inkscape:window-height="480"
   id="namedview37"
   showgrid="false"
   fit-margin-top="0"
   fit-margin-left="0"
   fit-margin-right="0"
   fit-margin-bottom="0"
   inkscape:zoom="2.4525342"
   inkscape:cx="24.986499"
   inkscape:cy="-18.348359"
   inkscape:window-x="0"
   inkscape:window-y="0"
   inkscape:window-maximized="0"
   inkscape:current-layer="Capa_1" />
<g
   id="g4"
   transform="matrix(0.30016209,0,0,0.31176281,-6.9418487,0)">
	<path
   d="m 73.099,15.973 -9.058,0.004 c -7.102,0 -8.477,3.375 -8.477,8.328 V 35.226 H 72.502 L 72.496,52.332 H 55.564 V 96.227 H 37.897 V 52.332 H 23.127 V 35.226 h 14.77 V 22.612 C 37.897,7.972 46.84,0 59.9,0 l 13.2,0.021 z"
   id="path2"
   inkscape:connector-curvature="0" />
</g>
<g
   id="g6"
   transform="matrix(0.30016209,0,0,0.31176281,-6.9418487,0)">
</g>
<g
   id="g8"
   transform="matrix(0.30016209,0,0,0.31176281,-6.9418487,0)">
</g>
<g
   id="g10"
   transform="matrix(0.30016209,0,0,0.31176281,-6.9418487,0)">
</g>
<g
   id="g12"
   transform="matrix(0.30016209,0,0,0.31176281,-6.9418487,0)">
</g>
<g
   id="g14"
   transform="matrix(0.30016209,0,0,0.31176281,-6.9418487,0)">
</g>
<g
   id="g16"
   transform="matrix(0.30016209,0,0,0.31176281,-6.9418487,0)">
</g>
<g
   id="g18"
   transform="matrix(0.30016209,0,0,0.31176281,-6.9418487,0)">
</g>
<g
   id="g20"
   transform="matrix(0.30016209,0,0,0.31176281,-6.9418487,0)">
</g>
<g
   id="g22"
   transform="matrix(0.30016209,0,0,0.31176281,-6.9418487,0)">
</g>
<g
   id="g24"
   transform="matrix(0.30016209,0,0,0.31176281,-6.9418487,0)">
</g>
<g
   id="g26"
   transform="matrix(0.30016209,0,0,0.31176281,-6.9418487,0)">
</g>
<g
   id="g28"
   transform="matrix(0.30016209,0,0,0.31176281,-6.9418487,0)">
</g>
<g
   id="g30"
   transform="matrix(0.30016209,0,0,0.31176281,-6.9418487,0)">
</g>
<g
   id="g32"
   transform="matrix(0.30016209,0,0,0.31176281,-6.9418487,0)">
</g>
<g
   id="g34"
   transform="matrix(0.30016209,0,0,0.31176281,-6.9418487,0)">
</g>
</svg>