<?xml version="1.0" encoding="UTF-8" standalone="no"?>
<!-- Generator: Adobe Illustrator 19.0.0, SVG Export Plug-In . SVG Version: 6.00 Build 0)  -->

<svg
   xmlns:dc="http://purl.org/dc/elements/1.1/"
   xmlns:cc="http://creativecommons.org/ns#"
   xmlns:rdf="http://www.w3.org/1999/02/22-rdf-syntax-ns#"
   xmlns:svg="http://www.w3.org/2000/svg"
   xmlns="http://www.w3.org/2000/svg"
   xmlns:sodipodi="http://sodipodi.sourceforge.net/DTD/sodipodi-0.dtd"
   xmlns:inkscape="http://www.inkscape.org/namespaces/inkscape"
   version="1.1"
   id="Capa_1"
   x="0px"
   y="0px"
   viewBox="0 0 28 28"
   xml:space="preserve"
   sodipodi:docname="search.svg"
   width="28"
   height="28"
   inkscape:version="0.92.4 (5da689c313, 2019-01-14)"><metadata
   id="metadata39"><rdf:RDF><cc:Work
       rdf:about=""><dc:format>image/svg+xml</dc:format><dc:type
         rdf:resource="http://purl.org/dc/dcmitype/StillImage" /><dc:title /></cc:Work></rdf:RDF></metadata><defs
   id="defs37" /><sodipodi:namedview
   pagecolor="#ffffff"
   bordercolor="#666666"
   borderopacity="1"
   objecttolerance="10"
   gridtolerance="10"
   guidetolerance="10"
   inkscape:pageopacity="0"
   inkscape:pageshadow="2"
   inkscape:window-width="999"
   inkscape:window-height="781"
   id="namedview35"
   showgrid="false"
   inkscape:zoom="4.1428221"
   inkscape:cx="16.345948"
   inkscape:cy="-1.689668"
   inkscape:window-x="716"
   inkscape:window-y="104"
   inkscape:window-maximized="0"
   inkscape:current-layer="Capa_1"
   fit-margin-top="0"
   fit-margin-left="0"
   fit-margin-right="0"
   fit-margin-bottom="0" />
<path
   d="m 27.574277,25.503563 -6.902478,-6.930941 c 1.774747,-2.036864 2.747143,-4.599656 2.747143,-7.267633 C 23.418942,5.071517 18.165971,0 11.709471,0 5.2529706,0 0,5.071517 0,11.304989 c 0,6.233472 5.2529706,11.304989 11.709471,11.304989 2.423861,0 4.73368,-0.705824 6.708509,-2.045712 L 25.372896,27.5478 C 25.663597,27.839271 26.054592,28 26.473586,28 c 0.396596,0 0.772827,-0.145983 1.058435,-0.411404 0.606857,-0.563774 0.626203,-1.498647 0.04226,-2.085033 z M 11.709471,2.949128 c 4.772374,0 8.654827,3.748341 8.654827,8.355861 0,4.60752 -3.882453,8.355862 -8.654827,8.355862 -4.772373,0 -8.6548263,-3.748342 -8.6548263,-8.355862 0,-4.60752 3.8824533,-8.355861 8.6548263,-8.355861 z"
   id="path2"
   inkscape:connector-curvature="0"
   style="stroke-width:0.50023711" />
<g
   id="g4"
   transform="matrix(0.50910745,0,0,0.49152126,-0.50096173,0)">
</g>
<g
   id="g6"
   transform="matrix(0.50910745,0,0,0.49152126,-0.50096173,0)">
</g>
<g
   id="g8"
   transform="matrix(0.50910745,0,0,0.49152126,-0.50096173,0)">
</g>
<g
   id="g10"
   transform="matrix(0.50910745,0,0,0.49152126,-0.50096173,0)">
</g>
<g
   id="g12"
   transform="matrix(0.50910745,0,0,0.49152126,-0.50096173,0)">
</g>
<g
   id="g14"
   transform="matrix(0.50910745,0,0,0.49152126,-0.50096173,0)">
</g>
<g
   id="g16"
   transform="matrix(0.50910745,0,0,0.49152126,-0.50096173,0)">
</g>
<g
   id="g18"
   transform="matrix(0.50910745,0,0,0.49152126,-0.50096173,0)">
</g>
<g
   id="g20"
   transform="matrix(0.50910745,0,0,0.49152126,-0.50096173,0)">
</g>
<g
   id="g22"
   transform="matrix(0.50910745,0,0,0.49152126,-0.50096173,0)">
</g>
<g
   id="g24"
   transform="matrix(0.50910745,0,0,0.49152126,-0.50096173,0)">
</g>
<g
   id="g26"
   transform="matrix(0.50910745,0,0,0.49152126,-0.50096173,0)">
</g>
<g
   id="g28"
   transform="matrix(0.50910745,0,0,0.49152126,-0.50096173,0)">
</g>
<g
   id="g30"
   transform="matrix(0.50910745,0,0,0.49152126,-0.50096173,0)">
</g>
<g
   id="g32"
   transform="matrix(0.50910745,0,0,0.49152126,-0.50096173,0)">
</g>
<path
   style="fill:#949699;fill-opacity:0;stroke:none;stroke-width:0.24138135;stroke-opacity:1;paint-order:markers stroke fill"
   d="m 22.107858,24.165871 -3.758444,-3.689299 -1.498671,0.769233 C 9.1067386,25.220623 -0.51665562,18.996957 0.19693568,10.475413 0.6499709,5.0653693 5.1033135,0.70161932 10.69161,0.19187074 16.456296,-0.3339676 21.913223,3.6439995 23.070564,9.2158282 c 0.557281,2.6829358 -0.147666,6.0733408 -1.711728,8.2324648 -0.393965,0.543853 -0.7163,1.072589 -0.7163,1.174968 0,0.102379 1.629324,1.812752 3.620721,3.800828 3.730742,3.724522 4.055561,4.238587 3.179296,5.031597 -0.937414,0.848347 -1.425798,0.54717 -5.334695,-3.289815 z M 15.021365,19.126219 C 16.97147,18.397567 19.155462,16.201096 19.90257,14.217123 20.64901,12.234925 20.528496,9.4658027 19.618455,7.6888092 18.345941,5.2040327 16.007625,3.5212373 13.073827,2.9788954 9.4945805,2.3172358 5.5214294,4.3360437 3.8043972,7.6888092 2.9000149,9.454753 2.775143,12.228708 3.5105197,14.217123 c 0.7073896,1.91274 2.9362101,4.172378 4.8342465,4.90109 1.8497608,0.710178 4.7879338,0.713701 6.6765988,0.008 z"
   id="path827"
   inkscape:connector-curvature="0" /><path
   style="fill:#949699;fill-opacity:0;stroke:none;stroke-width:0.24138135;stroke-opacity:1;paint-order:markers stroke fill"
   d="m 22.107858,24.165871 -3.758444,-3.689299 -1.498671,0.769233 C 9.1067386,25.220623 -0.51665562,18.996957 0.19693568,10.475413 0.6499709,5.0653693 5.1033135,0.70161932 10.69161,0.19187074 16.456296,-0.3339676 21.913223,3.6439995 23.070564,9.2158282 c 0.557281,2.6829358 -0.147666,6.0733408 -1.711728,8.2324648 -0.393965,0.543853 -0.7163,1.072589 -0.7163,1.174968 0,0.102379 1.629324,1.812752 3.620721,3.800828 3.730742,3.724522 4.055561,4.238587 3.179296,5.031597 -0.937414,0.848347 -1.425798,0.54717 -5.334695,-3.289815 z M 15.021365,19.126219 C 16.97147,18.397567 19.155462,16.201096 19.90257,14.217123 20.64901,12.234925 20.528496,9.4658027 19.618455,7.6888092 18.345941,5.2040327 16.007625,3.5212373 13.073827,2.9788954 9.4945805,2.3172358 5.5214294,4.3360437 3.8043972,7.6888092 2.9000149,9.454753 2.775143,12.228708 3.5105197,14.217123 c 0.7073896,1.91274 2.9362101,4.172378 4.8342465,4.90109 1.8497608,0.710178 4.7879338,0.713701 6.6765988,0.008 z"
   id="path829"
   inkscape:connector-curvature="0" /><path
   style="fill:#949699;fill-opacity:0;stroke:none;stroke-width:0.24138135;stroke-opacity:1;paint-order:markers stroke fill"
   d="m 22.107858,24.165871 -3.758444,-3.689299 -1.498671,0.769233 C 9.1067386,25.220623 -0.51665562,18.996957 0.19693568,10.475413 0.6499709,5.0653693 5.1033135,0.70161932 10.69161,0.19187074 16.456296,-0.3339676 21.913223,3.6439995 23.070564,9.2158282 c 0.557281,2.6829358 -0.147666,6.0733408 -1.711728,8.2324648 -0.393965,0.543853 -0.7163,1.072589 -0.7163,1.174968 0,0.102379 1.629324,1.812752 3.620721,3.800828 3.730742,3.724522 4.055561,4.238587 3.179296,5.031597 -0.937414,0.848347 -1.425798,0.54717 -5.334695,-3.289815 z M 15.021365,19.126219 C 16.97147,18.397567 19.155462,16.201096 19.90257,14.217123 20.64901,12.234925 20.528496,9.4658027 19.618455,7.6888092 18.345941,5.2040327 16.007625,3.5212373 13.073827,2.9788954 9.4945805,2.3172358 5.5214294,4.3360437 3.8043972,7.6888092 2.9000149,9.454753 2.775143,12.228708 3.5105197,14.217123 c 0.7073896,1.91274 2.9362101,4.172378 4.8342465,4.90109 1.8497608,0.710178 4.7879338,0.713701 6.6765988,0.008 z"
   id="path831"
   inkscape:connector-curvature="0" /><path
   style="fill:#949699;fill-opacity:0;stroke:none;stroke-width:0.24138135;stroke-opacity:1;paint-order:markers stroke fill"
   d="m 22.107858,24.165871 -3.758444,-3.689299 -1.498671,0.769233 C 9.1067386,25.220623 -0.51665562,18.996957 0.19693568,10.475413 0.6499709,5.0653693 5.1033135,0.70161932 10.69161,0.19187074 16.456296,-0.3339676 21.913223,3.6439995 23.070564,9.2158282 c 0.557281,2.6829358 -0.147666,6.0733408 -1.711728,8.2324648 -0.393965,0.543853 -0.7163,1.072589 -0.7163,1.174968 0,0.102379 1.629324,1.812752 3.620721,3.800828 3.730742,3.724522 4.055561,4.238587 3.179296,5.031597 -0.937414,0.848347 -1.425798,0.54717 -5.334695,-3.289815 z M 15.021365,19.126219 C 16.97147,18.397567 19.155462,16.201096 19.90257,14.217123 20.64901,12.234925 20.528496,9.4658027 19.618455,7.6888092 18.345941,5.2040327 16.007625,3.5212373 13.073827,2.9788954 9.4945805,2.3172358 5.5214294,4.3360437 3.8043972,7.6888092 2.9000149,9.454753 2.775143,12.228708 3.5105197,14.217123 c 0.7073896,1.91274 2.9362101,4.172378 4.8342465,4.90109 1.8497608,0.710178 4.7879338,0.713701 6.6765988,0.008 z"
   id="path833"
   inkscape:connector-curvature="0" /><path
   style="fill:#949699;fill-opacity:1;stroke:#000000;stroke-width:0.24138135;stroke-opacity:1;paint-order:markers stroke fill"
   d="m 22.107858,24.165871 -3.758444,-3.689299 -1.498671,0.769233 C 9.1067386,25.220623 -0.51665562,18.996957 0.19693568,10.475413 0.6499709,5.0653693 5.1033135,0.70161932 10.69161,0.19187074 16.456296,-0.3339676 21.913223,3.6439995 23.070564,9.2158282 c 0.557281,2.6829358 -0.147666,6.0733408 -1.711728,8.2324648 -0.393965,0.543853 -0.7163,1.072589 -0.7163,1.174968 0,0.102379 1.629324,1.812752 3.620721,3.800828 3.730742,3.724522 4.055561,4.238587 3.179296,5.031597 -0.937414,0.848347 -1.425798,0.54717 -5.334695,-3.289815 z M 15.021365,19.126219 C 16.97147,18.397567 19.155462,16.201096 19.90257,14.217123 20.64901,12.234925 20.528496,9.4658027 19.618455,7.6888092 18.345941,5.2040327 16.007625,3.5212373 13.073827,2.9788954 9.4945805,2.3172358 5.5214294,4.3360437 3.8043972,7.6888092 2.9000149,9.454753 2.775143,12.228708 3.5105197,14.217123 c 0.7073896,1.91274 2.9362101,4.172378 4.8342465,4.90109 1.8497608,0.710178 4.7879338,0.713701 6.6765988,0.008 z"
   id="path835"
   inkscape:connector-curvature="0" /></svg>