<?xml version="1.0" encoding="UTF-8" standalone="no"?>
<!-- Generator: Adobe Illustrator 16.0.0, SVG Export Plug-In . SVG Version: 6.00 Build 0)  -->

<svg
   xmlns:dc="http://purl.org/dc/elements/1.1/"
   xmlns:cc="http://creativecommons.org/ns#"
   xmlns:rdf="http://www.w3.org/1999/02/22-rdf-syntax-ns#"
   xmlns:svg="http://www.w3.org/2000/svg"
   xmlns="http://www.w3.org/2000/svg"
   xmlns:sodipodi="http://sodipodi.sourceforge.net/DTD/sodipodi-0.dtd"
   xmlns:inkscape="http://www.inkscape.org/namespaces/inkscape"
   version="1.1"
   id="Capa_1"
   x="0px"
   y="0px"
   width="32"
   height="26"
   viewBox="0 0 32 26"
   xml:space="preserve"
   sodipodi:docname="twit.svg"
   inkscape:version="0.92.4 (5da689c313, 2019-01-14)"><metadata
   id="metadata41"><rdf:RDF><cc:Work
       rdf:about=""><dc:format>image/svg+xml</dc:format><dc:type
         rdf:resource="http://purl.org/dc/dcmitype/StillImage" /><dc:title></dc:title></cc:Work></rdf:RDF></metadata><defs
   id="defs39" /><sodipodi:namedview
   pagecolor="#ffffff"
   bordercolor="#666666"
   borderopacity="1"
   objecttolerance="10"
   gridtolerance="10"
   guidetolerance="10"
   inkscape:pageopacity="0"
   inkscape:pageshadow="2"
   inkscape:window-width="716"
   inkscape:window-height="480"
   id="namedview37"
   showgrid="false"
   fit-margin-top="0"
   fit-margin-left="0"
   fit-margin-right="0"
   fit-margin-bottom="0"
   inkscape:zoom="2.4171164"
   inkscape:cx="48.818814"
   inkscape:cy="-13.191162"
   inkscape:window-x="0"
   inkscape:window-y="0"
   inkscape:window-maximized="0"
   inkscape:current-layer="Capa_1" />
<g
   id="g4"
   transform="matrix(0.32774349,0,0,0.32692066,1.0284373e-4,-2.9596127)">
	<path
   d="m 97.523,18.526 c -0.14,-0.165 -0.371,-0.221 -0.568,-0.131 -2.919,1.295 -5.99,2.226 -9.153,2.776 3.358,-2.526 5.86,-6.024 7.143,-10.035 0.062,-0.192 -0.002,-0.402 -0.159,-0.527 -0.158,-0.125 -0.377,-0.141 -0.55,-0.038 -3.782,2.243 -7.878,3.824 -12.18,4.701 -3.812,-3.956 -9.135,-6.219 -14.644,-6.219 -11.204,0 -20.318,9.114 -20.318,20.317 0,1.355 0.131,2.697 0.391,4 C 31.967,32.412 17.457,24.962 7.591,12.861 7.49,12.737 7.337,12.668 7.177,12.684 c -0.159,0.012 -0.301,0.102 -0.381,0.239 -1.8,3.088 -2.751,6.621 -2.751,10.215 0,6.229 2.83,12.053 7.649,15.896 C 9.213,38.736 6.79,37.955 4.605,36.742 4.458,36.659 4.275,36.66 4.128,36.745 c -0.147,0.084 -0.24,0.24 -0.244,0.41 l -0.002,0.26 c 0,8.946 5.895,16.801 14.282,19.409 -2.209,0.356 -4.501,0.332 -6.754,-0.098 -0.166,-0.031 -0.34,0.026 -0.454,0.154 -0.113,0.128 -0.151,0.307 -0.099,0.469 2.515,7.85 9.503,13.355 17.637,14.041 -6.785,4.971 -14.805,7.59 -23.279,7.59 -1.561,0 -3.133,-0.093 -4.673,-0.274 -0.22,-0.025 -0.438,0.106 -0.514,0.317 -0.076,0.213 0.005,0.451 0.195,0.572 9.17,5.881 19.773,8.988 30.664,8.988 35.625,0 56.913,-28.938 56.913,-56.914 0,-0.779 -0.015,-1.554 -0.046,-2.327 3.843,-2.811 7.142,-6.252 9.802,-10.235 0.119,-0.178 0.106,-0.415 -0.033,-0.581 z"
   id="path2"
   inkscape:connector-curvature="0" />
</g>
<g
   id="g6"
   transform="translate(3.1379335e-4,-9.6273387)">
</g>
<g
   id="g8"
   transform="translate(3.1379335e-4,-9.6273387)">
</g>
<g
   id="g10"
   transform="translate(3.1379335e-4,-9.6273387)">
</g>
<g
   id="g12"
   transform="translate(3.1379335e-4,-9.6273387)">
</g>
<g
   id="g14"
   transform="translate(3.1379335e-4,-9.6273387)">
</g>
<g
   id="g16"
   transform="translate(3.1379335e-4,-9.6273387)">
</g>
<g
   id="g18"
   transform="translate(3.1379335e-4,-9.6273387)">
</g>
<g
   id="g20"
   transform="translate(3.1379335e-4,-9.6273387)">
</g>
<g
   id="g22"
   transform="translate(3.1379335e-4,-9.6273387)">
</g>
<g
   id="g24"
   transform="translate(3.1379335e-4,-9.6273387)">
</g>
<g
   id="g26"
   transform="translate(3.1379335e-4,-9.6273387)">
</g>
<g
   id="g28"
   transform="translate(3.1379335e-4,-9.6273387)">
</g>
<g
   id="g30"
   transform="translate(3.1379335e-4,-9.6273387)">
</g>
<g
   id="g32"
   transform="translate(3.1379335e-4,-9.6273387)">
</g>
<g
   id="g34"
   transform="translate(3.1379335e-4,-9.6273387)">
</g>
</svg>