<?xml version="1.0" encoding="UTF-8" standalone="no"?>
<!-- Generator: Adobe Illustrator 19.0.0, SVG Export Plug-In . SVG Version: 6.00 Build 0)  -->

<svg
   xmlns:dc="http://purl.org/dc/elements/1.1/"
   xmlns:cc="http://creativecommons.org/ns#"
   xmlns:rdf="http://www.w3.org/1999/02/22-rdf-syntax-ns#"
   xmlns:svg="http://www.w3.org/2000/svg"
   xmlns="http://www.w3.org/2000/svg"
   xmlns:sodipodi="http://sodipodi.sourceforge.net/DTD/sodipodi-0.dtd"
   xmlns:inkscape="http://www.inkscape.org/namespaces/inkscape"
   version="1.1"
   id="Capa_1"
   x="0px"
   y="0px"
   viewBox="0 0 40 32"
   xml:space="preserve"
   sodipodi:docname="video.svg"
   width="40"
   height="32"
   inkscape:version="0.92.4 (5da689c313, 2019-01-14)"><metadata
   id="metadata39"><rdf:RDF><cc:Work
       rdf:about=""><dc:format>image/svg+xml</dc:format><dc:type
         rdf:resource="http://purl.org/dc/dcmitype/StillImage" /><dc:title></dc:title></cc:Work></rdf:RDF></metadata><defs
   id="defs37" /><sodipodi:namedview
   pagecolor="#ffffff"
   bordercolor="#666666"
   borderopacity="1"
   objecttolerance="10"
   gridtolerance="10"
   guidetolerance="10"
   inkscape:pageopacity="0"
   inkscape:pageshadow="2"
   inkscape:window-width="716"
   inkscape:window-height="480"
   id="namedview35"
   showgrid="false"
   fit-margin-top="0"
   fit-margin-left="0"
   fit-margin-right="0"
   fit-margin-bottom="0"
   inkscape:zoom="4.0689655"
   inkscape:cx="29"
   inkscape:cy="23"
   inkscape:window-x="0"
   inkscape:window-y="0"
   inkscape:window-maximized="0"
   inkscape:current-layer="Capa_1" />
<path
   d="M 39.310345,0 H 0.68965517 C 0.30896552,0 0,0.310957 0,0.695652 V 31.304348 C 0,31.689043 0.30896552,32 0.68965517,32 H 39.310345 C 39.691034,32 40,31.689043 40,31.304348 V 0.695652 C 40,0.310957 39.691034,0 39.310345,0 Z M 6.8965517,30.608696 H 1.3793103 v -6.26087 h 5.5172414 z m 0,-7.652174 H 1.3793103 v -6.26087 h 5.5172414 z m 0,-7.652174 H 1.3793103 v -6.26087 h 5.5172414 z m 0,-7.652174 H 1.3793103 v -6.26087 h 5.5172414 z m 18.3013793,8.934956 -7.586207,4.869566 c -0.112414,0.07165 -0.241379,0.108521 -0.370345,0.108521 -0.114482,0 -0.228276,-0.02852 -0.331724,-0.08556 -0.220689,-0.122435 -0.357931,-0.356174 -0.357931,-0.610087 v -9.73913 c 0,-0.253913 0.137242,-0.487652 0.357931,-0.610087 0.22069,-0.121739 0.489655,-0.112696 0.702759,0.02296 l 7.586207,4.869566 c 0.197931,0.128 0.31862,0.349217 0.31862,0.58713 0,0.237913 -0.120689,0.45913 -0.31931,0.58713 z M 38.62069,30.608696 h -5.517242 v -6.26087 h 5.517242 z m 0,-7.652174 h -5.517242 v -6.26087 h 5.517242 z m 0,-7.652174 h -5.517242 v -6.26087 h 5.517242 z m 0,-7.652174 h -5.517242 v -6.26087 h 5.517242 z"
   id="path2"
   inkscape:connector-curvature="0"
   style="stroke-width:0.69264722" />
<g
   id="g4"
   transform="translate(0,-20)">
</g>
<g
   id="g6"
   transform="translate(0,-20)">
</g>
<g
   id="g8"
   transform="translate(0,-20)">
</g>
<g
   id="g10"
   transform="translate(0,-20)">
</g>
<g
   id="g12"
   transform="translate(0,-20)">
</g>
<g
   id="g14"
   transform="translate(0,-20)">
</g>
<g
   id="g16"
   transform="translate(0,-20)">
</g>
<g
   id="g18"
   transform="translate(0,-20)">
</g>
<g
   id="g20"
   transform="translate(0,-20)">
</g>
<g
   id="g22"
   transform="translate(0,-20)">
</g>
<g
   id="g24"
   transform="translate(0,-20)">
</g>
<g
   id="g26"
   transform="translate(0,-20)">
</g>
<g
   id="g28"
   transform="translate(0,-20)">
</g>
<g
   id="g30"
   transform="translate(0,-20)">
</g>
<g
   id="g32"
   transform="translate(0,-20)">
</g>
</svg>